<svg width="35" height="36" viewBox="0 0 35 36" fill="none" xmlns="http://www.w3.org/2000/svg">
<path fill-rule="evenodd" clip-rule="evenodd" d="M31.5553 28.1999C31.5553 29.7905 30.271 31.0799 28.6866 31.0799H5.73688C4.15253 31.0799 2.86816 29.7905 2.86816 28.1999V17.8243L2.98414 17.5527L7.31807 7.40525C7.96448 6.08355 8.77978 5.26504 10.04 5.15991H24.3835L24.5712 5.17229C25.651 5.31534 26.442 6.10938 27.1363 7.47267L31.5553 17.8243V28.1999ZM5.73691 19.56V28.2001H28.6867V19.56H22.9491C22.9491 21.1506 21.6647 22.44 20.0804 22.44H14.3429C12.7586 22.44 11.4742 21.1506 11.4742 19.56H5.73691ZM6.47785 16.68H14.3429V19.56H20.0804V16.68H27.9465L24.5423 8.69857C24.3817 8.38486 24.2334 8.16469 24.1136 8.03996L10.2923 8.03464C10.1816 8.15449 10.0448 8.36449 9.92402 8.60731L6.47785 16.68Z" fill="white" fill-opacity="0.3"/>
</svg>
