<svg width="31" height="30" viewBox="0 0 31 30" fill="none" xmlns="http://www.w3.org/2000/svg">
<path fill-rule="evenodd" clip-rule="evenodd" d="M7.88281 8.66804C7.88281 8.15509 8.29864 7.73926 8.81159 7.73926H22.4337C22.9466 7.73926 23.3625 8.15509 23.3625 8.66804C23.3625 9.18099 22.9466 9.59682 22.4337 9.59682H8.81159C8.29864 9.59682 7.88281 9.18099 7.88281 8.66804Z" fill="#8F4F00"/>
<path fill-rule="evenodd" clip-rule="evenodd" d="M7.88281 21.0528C7.88281 20.5399 8.29864 20.124 8.81159 20.124H22.4337C22.9466 20.124 23.3625 20.5399 23.3625 21.0528C23.3625 21.5658 22.9466 21.9816 22.4337 21.9816H8.81159C8.29864 21.9816 7.88281 21.5658 7.88281 21.0528Z" fill="#8F4F00"/>
<path fill-rule="evenodd" clip-rule="evenodd" d="M15.6246 15.7892C13.9003 15.7892 12.2467 16.4742 11.0274 17.6934C9.80816 18.9127 9.12318 20.5664 9.12318 22.2907V24.7674C9.12318 24.8495 9.1558 24.9283 9.21386 24.9863C9.27192 25.0444 9.35067 25.077 9.43278 25.077H21.8165C21.8986 25.077 21.9774 25.0444 22.0354 24.9863C22.0935 24.9283 22.1261 24.8495 22.1261 24.7674V22.2907C22.1261 20.5664 21.4411 18.9127 20.2219 17.6934C19.0026 16.4742 17.3489 15.7892 15.6246 15.7892ZM9.71392 16.3799C11.2815 14.8123 13.4077 13.9316 15.6246 13.9316C17.8416 13.9316 19.9677 14.8123 21.5353 16.3799C23.103 17.9476 23.9836 20.0737 23.9836 22.2907V24.7674C23.9836 25.3422 23.7553 25.8934 23.3489 26.2998C22.9425 26.7062 22.3913 26.9345 21.8165 26.9345H9.43278C8.85801 26.9345 8.30679 26.7062 7.90037 26.2998C7.49395 25.8934 7.26562 25.3422 7.26562 24.7674V22.2907C7.26562 20.0737 8.1463 17.9476 9.71392 16.3799Z" fill="#8F4F00"/>
<path fill-rule="evenodd" clip-rule="evenodd" d="M7.90037 3.42088C8.30679 3.01446 8.85801 2.78613 9.43278 2.78613H21.8165C22.3913 2.78613 22.9425 3.01446 23.3489 3.42088C23.7553 3.8273 23.9836 4.37852 23.9836 4.95328V7.43003C23.9836 9.64698 23.103 11.7731 21.5353 13.3407C19.9677 14.9084 17.8416 15.789 15.6246 15.789C13.4077 15.789 11.2815 14.9084 9.71392 13.3407C8.1463 11.7731 7.26562 9.64698 7.26562 7.43003V4.95328C7.26562 4.37852 7.49395 3.8273 7.90037 3.42088ZM9.43278 4.64369C9.35067 4.64369 9.27192 4.67631 9.21386 4.73437C9.1558 4.79243 9.12318 4.87118 9.12318 4.95328V7.43003C9.12318 9.15432 9.80816 10.808 11.0274 12.0272C12.2467 13.2465 13.9003 13.9315 15.6246 13.9315C17.3489 13.9315 19.0026 13.2465 20.2219 12.0272C21.4411 10.808 22.1261 9.15432 22.1261 7.43003V4.95328C22.1261 4.87117 22.0935 4.79243 22.0354 4.73437C21.9774 4.67631 21.8986 4.64369 21.8165 4.64369H9.43278Z" fill="#8F4F00"/>
</svg>
