<svg width="41" height="49" viewBox="0 0 41 49" fill="none" xmlns="http://www.w3.org/2000/svg">
<path d="M20.7463 42.104H8.96829C8.38938 42.1028 7.92038 41.7389 7.91906 41.2896V7.07698C7.9205 6.62766 8.38938 6.26365 8.96829 6.26262H20.7463C22.8716 6.26262 24.5945 4.92538 24.5945 3.27584C24.5945 1.6263 22.8716 0.289062 20.7463 0.289062H8.96829C4.14049 0.293449 0.228308 3.32998 0.222656 7.07698V41.2895C0.228308 45.0366 4.14049 48.0731 8.96829 48.0775H20.7463C22.8716 48.0775 24.5945 46.7403 24.5945 45.0907C24.5945 43.4412 22.8716 42.104 20.7463 42.104Z" fill="white"/>
<path d="M38.8589 17.5098L32.5377 9.92548C31.5836 8.7803 30.0369 8.78076 29.0832 9.92649C28.1295 11.0722 28.1299 12.9293 29.084 14.0745L34.6399 20.7437L12.5092 20.7984C11.1603 20.7984 10.5352 22.0763 10.5352 23.696C10.5352 25.3158 11.1603 26.6641 12.5092 26.6641L34.7295 26.6152L29.084 33.394C28.1649 34.5796 28.2202 36.4353 29.2075 37.539C30.146 38.5879 31.6001 38.5871 32.5377 37.5371L38.854 29.9528C41.7157 26.5168 41.7157 20.9459 38.8541 17.5099L38.8589 17.5098Z" fill="white"/>
</svg>
