<svg width="35" height="35" viewBox="0 0 35 35" fill="none" xmlns="http://www.w3.org/2000/svg">
<path fill-rule="evenodd" clip-rule="evenodd" d="M31.5553 28.8001V18.7201H28.6866V28.8001H5.73688V5.76013H15.7774V2.88013H5.73688C4.15253 2.88013 2.86816 4.16955 2.86816 5.76013V28.8001C2.86816 30.3907 4.15253 31.6801 5.73688 31.6801H28.6866C30.271 31.6801 31.5553 30.3907 31.5553 28.8001ZM27.5078 3.92186C26.8503 3.25657 25.9501 2.88013 25.0109 2.88013C24.0729 2.88013 23.1736 3.25572 22.5123 3.92359L10.5083 15.9747C9.43568 16.9235 8.73252 18.3354 8.61032 19.8538L8.60567 24.4835V25.9235H14.5362C16.1632 25.8115 17.5834 25.0986 18.5852 23.9383L30.5212 11.9605C31.1835 11.2957 31.5555 10.394 31.5555 9.45384C31.5555 8.51365 31.1835 7.61197 30.5212 6.94715L27.5078 3.92186ZM14.4349 23.0471C15.2012 22.9926 15.9145 22.6346 16.4872 21.9769L25.1819 13.248L21.2312 9.28159L12.4729 18.0715C11.8917 18.5875 11.5322 19.3094 11.4744 19.9698V23.0444L14.4349 23.0471ZM23.2601 7.24546L27.2104 11.2115L28.4928 9.92406C28.617 9.79935 28.6868 9.63021 28.6868 9.45384C28.6868 9.27747 28.617 9.10833 28.4928 8.98362L25.4754 5.95432C25.3525 5.83003 25.1854 5.76013 25.011 5.76013C24.8366 5.76013 24.6694 5.83003 24.5466 5.95432L23.2601 7.24546Z" fill="white"/>
</svg>
