<svg width="30" height="28" viewBox="0 0 30 28" fill="none" xmlns="http://www.w3.org/2000/svg">
<path d="M17.6296 18.9521L20.8302 15.7515L29.8782 24.7994L26.6776 28L17.6296 18.9521ZM23.2386 11.1475C26.1509 11.1475 28.5201 8.77839 28.5201 5.86602C28.5201 4.9908 28.2786 4.17594 27.9014 3.45162L23.8271 7.52592L21.5787 5.27751L25.653 1.20322C24.9286 0.825965 24.1138 0.584526 23.2386 0.584526C20.3262 0.584526 17.9571 2.95365 17.9571 5.86602C17.9571 6.48471 18.0778 7.07322 18.274 7.61646L15.4823 10.4081L12.7963 7.72209L13.8677 6.6507L11.74 4.52301L14.9391 1.32393C14.0903 0.476177 12.9397 0 11.74 0C10.5403 0 9.38974 0.476177 8.54093 1.32393L3.19908 6.66579L5.32676 8.79347H1.07139L0 9.86486L5.34185 15.2067L6.41324 14.1353V9.86486L8.54093 11.9926L9.61232 10.9212L12.2983 13.6072L1.11666 24.7889L4.31573 27.9879L21.4881 10.8306C22.0314 11.0268 22.6199 11.1475 23.2386 11.1475Z" fill="white" />
</svg>
