<svg width="31" height="30" viewBox="0 0 31 30" fill="none" xmlns="http://www.w3.org/2000/svg">
<path fill-rule="evenodd" clip-rule="evenodd" d="M6.86646 4.64369C6.45591 4.64369 6.06218 4.80678 5.77188 5.09708C5.48158 5.38738 5.3185 5.78111 5.3185 6.19166V23.5289C5.3185 23.9394 5.48158 24.3331 5.77188 24.6234C6.06218 24.9137 6.45592 25.0768 6.86646 25.0768H24.2037C24.6142 25.0768 25.0079 24.9137 25.2982 24.6234C25.5885 24.3331 25.7516 23.9394 25.7516 23.5289V6.19166C25.7516 5.78111 25.5885 5.38738 25.2982 5.09708C25.0079 4.80678 24.6142 4.64369 24.2037 4.64369H6.86646ZM4.45839 3.78359C5.09705 3.14493 5.96326 2.78613 6.86646 2.78613H24.2037C25.1069 2.78613 25.9731 3.14493 26.6117 3.78359C27.2504 4.42225 27.6092 5.28845 27.6092 6.19166V23.5289C27.6092 24.4321 27.2504 25.2983 26.6117 25.9369C25.9731 26.5756 25.1069 26.9344 24.2037 26.9344H6.86646C5.96326 26.9344 5.09705 26.5756 4.45839 25.9369C3.81973 25.2983 3.46094 24.4321 3.46094 23.5289V6.19166C3.46094 5.28846 3.81973 4.42225 4.45839 3.78359Z" fill="#81290E"/>
<path fill-rule="evenodd" clip-rule="evenodd" d="M19.9064 11.7271C20.2691 12.0898 20.2691 12.6779 19.9064 13.0406L14.9529 17.9941C14.5902 18.3568 14.0021 18.3568 13.6394 17.9941L11.1627 15.5173C10.7999 15.1546 10.7999 14.5666 11.1627 14.2039C11.5254 13.8411 12.1134 13.8411 12.4762 14.2039L14.2961 16.0239L18.5929 11.7271C18.9556 11.3644 19.5437 11.3644 19.9064 11.7271Z" fill="#81290E"/>
</svg>
