<svg width="35" height="35" viewBox="0 0 35 35" fill="none" xmlns="http://www.w3.org/2000/svg">
<path fill-rule="evenodd" clip-rule="evenodd" d="M27.084 30.3303L30.2775 27.1376L29.1528 23.0527L29.6428 21.8827L33.3406 19.7966V15.2818L29.6533 13.187L29.1715 12.0192L30.3103 7.93206L27.1146 4.74177L23.0282 5.86588L21.8606 5.37643L19.7738 1.6792H15.2579L13.1626 5.36558L11.9947 5.84714L7.90721 4.70718L4.71647 7.89712L5.84105 11.9832L5.35148 13.1505L1.65332 15.2367V19.7503L5.3373 21.8497L5.8195 23.0186L4.68085 27.105L7.87279 30.2961L11.9599 29.1719L13.1276 29.6614L15.2144 33.3571H19.7292L21.8276 29.6739L22.9966 29.1919L27.084 30.3303ZM27.3669 19.8598L26.1112 22.858L27.0552 26.2863L26.2365 27.1048L22.8146 26.1517L19.8143 27.3888L18.0547 30.4772H16.8961L15.1511 27.3868L12.1555 26.1311L8.72447 27.0749L7.90717 26.2578L8.86042 22.8368L7.62312 19.8375L4.53388 18.077V16.9185L7.62641 15.1739L8.88251 12.1789L7.93846 8.74874L8.75406 7.93335L12.1759 8.88767L15.1773 7.65017L16.9341 4.5592H18.0916L19.8366 7.65096L22.8324 8.90675L26.2641 7.96274L27.0834 8.7807L26.1304 12.2011L27.3681 15.2014L30.4598 16.9578V18.115L27.3669 19.8598ZM17.4968 23.2788C14.315 23.2788 11.7355 20.7001 11.7355 17.519C11.7355 14.3379 14.315 11.7591 17.4968 11.7591C20.6787 11.7591 23.2582 14.3379 23.2582 17.519C23.2582 20.7001 20.6787 23.2788 17.4968 23.2788ZM20.3775 17.519C20.3775 19.1095 19.0878 20.3989 17.4968 20.3989C15.9059 20.3989 14.6162 19.1095 14.6162 17.519C14.6162 15.9284 15.9059 14.639 17.4968 14.639C19.0878 14.639 20.3775 15.9284 20.3775 17.519Z" fill="white"/>
</svg>
