<svg width="31" height="30" viewBox="0 0 31 30" fill="none" xmlns="http://www.w3.org/2000/svg">
<path fill-rule="evenodd" clip-rule="evenodd" d="M7.05178 4.87566C6.70282 4.87566 6.36814 5.01428 6.12139 5.26104C5.87464 5.50779 5.73601 5.84246 5.73601 6.19143V23.5286C5.73601 23.8776 5.87464 24.2123 6.12139 24.459C6.36815 24.7058 6.70282 24.8444 7.05178 24.8444H24.389C24.738 24.8444 25.0726 24.7058 25.3194 24.459C25.5661 24.2123 25.7048 23.8776 25.7048 23.5286V6.19143C25.7048 5.84247 25.5661 5.50779 25.3194 5.26104C25.0726 5.01428 24.738 4.87566 24.389 4.87566H7.05178ZM4.47953 3.61917C5.16173 2.93697 6.087 2.55371 7.05178 2.55371H24.389C25.3538 2.55371 26.279 2.93697 26.9612 3.61917C27.6434 4.30138 28.0267 5.22665 28.0267 6.19143V23.5286C28.0267 24.4934 27.6434 25.4187 26.9612 26.1009C26.279 26.7831 25.3538 27.1664 24.389 27.1664H7.05178C6.087 27.1664 5.16173 26.7831 4.47953 26.1009C3.79732 25.4187 3.41406 24.4934 3.41406 23.5286V6.19143C3.41406 5.22665 3.79732 4.30138 4.47953 3.61917Z" fill="#14367B"/>
</svg>
