<svg width="26" height="27" viewBox="0 0 26 27" fill="none" xmlns="http://www.w3.org/2000/svg">
<path d="M9.10695 6.32614H11.6757V18.8189C11.6757 18.9814 11.8008 19.1144 11.9537 19.1144H14.0393C14.1922 19.1144 14.3174 18.9814 14.3174 18.8189V6.32614H16.893C17.1259 6.32614 17.2545 6.04179 17.112 5.84977L13.219 0.613351C13.193 0.578041 13.1597 0.549484 13.1218 0.529845C13.0839 0.510206 13.0422 0.5 13 0.5C12.9578 0.5 12.9161 0.510206 12.8782 0.529845C12.8403 0.549484 12.807 0.578041 12.781 0.613351L8.88797 5.84607C8.74545 6.04179 8.87406 6.32614 9.10695 6.32614ZM25.7219 17.7111H23.6364C23.4834 17.7111 23.3583 17.844 23.3583 18.0065V23.6935H2.64171V18.0065C2.64171 17.844 2.51658 17.7111 2.36364 17.7111H0.278075C0.125134 17.7111 0 17.844 0 18.0065V25.3183C0 25.9719 0.497059 26.5 1.1123 26.5H24.8877C25.5029 26.5 26 25.9719 26 25.3183V18.0065C26 17.844 25.8749 17.7111 25.7219 17.7111Z" fill="#314659"/>
</svg>
